<?xml version="1.0" encoding="UTF-8"?>
<svg xmlns="http://www.w3.org/2000/svg" xmlns:xlink="http://www.w3.org/1999/xlink" width="24px" height="24px" viewBox="0 0 24 24" version="1.1">
<g id="surface1">
<path style=" stroke:none;fill-rule:nonzero;fill:rgb(0%,0%,0%);fill-opacity:1;" d="M 23.5625 21.445312 L 18.914062 16.796875 C 22.390625 12.152344 21.445312 5.570312 16.800781 2.09375 C 12.15625 -1.382812 5.570312 -0.433594 2.09375 4.210938 C -1.378906 8.855469 -0.433594 15.4375 4.210938 18.914062 C 7.945312 21.707031 13.066406 21.707031 16.800781 18.914062 L 21.445312 23.5625 C 22.03125 24.144531 22.976562 24.144531 23.5625 23.5625 C 24.144531 22.976562 24.144531 22.03125 23.5625 21.445312 Z M 10.542969 18.019531 C 6.417969 18.019531 3.070312 14.671875 3.070312 10.542969 C 3.070312 6.414062 6.417969 3.070312 10.542969 3.070312 C 14.671875 3.070312 18.019531 6.414062 18.019531 10.542969 C 18.015625 14.667969 14.671875 18.011719 10.542969 18.019531 Z M 10.542969 18.019531 "/>
</g>
</svg>
